<svg xmlns="http://www.w3.org/2000/svg" xml:space="preserve" id="Calque_1" x="0" y="0" style="enable-background:new 0 0 30 30" version="1.1" viewBox="0 0 30 30"><style>.st0{fill:#fff}</style><path d="M11 4.9c-.3 0-.3-.1-.2-.1.3 0 .9 0 1.3.1 1 .2 1.9.8 2.9 1.9l.3.3.3-.1c1.5-.2 3.1 0 4.4.6.4.2.9.5 1 .6 0 0 .1.2.1.4.1.6 0 1.1-.1 1.5-.1.2-.1.3 0 .4.1.1.2.2.4.2.3 0 .7-.5.8-1.3l.1-.3.1.1c.7.8 1.3 1.9 1.3 2.6v.2h-.1c-.2-.3-.4-.5-.7-.7-.5-.3-1-.4-2.3-.5-1.2-.1-1.9-.2-2.5-.4-1.1-.3-1.7-.8-3.1-2.6-.6-.8-1-1.2-1.3-1.6C12.9 5.4 12 5 11 4.9z" class="st0"/><path d="M21.3 6.6c0-.5.1-.9.2-1.2.1-.1.1-.2.1-.2s0 .1-.1.2c-.1.3-.1.7 0 1.2.1.6.1.7.8 1.4.3.3.7.7.8.9l.2.3-.1-.2c-.3-.3-1-.8-1.1-.9-.1-.1-.1 0-.2 0-.1.1-.1.1-.1.5 0 .6-.1 1-.3 1.4-.1.2-.1.2 0-.1.1-.2.1-.3.1-.9 0-1.2-.1-1.5-1-2-.2 0-.6-.2-.8-.3l-.4-.2 1.2.3c.5.2.6.2.6.2.1.1.1 0 .1-.4zm-9.7 2.1c-.6-.8-1-2-.9-3v-.3h.1c.3 0 .7.2.9.3.6.3.8.8 1 1.9.1.4.2.8.3.9.1.2.3.7.5 1 .2.2.1.3-.3.3-.5 0-1.2-.5-1.6-1.1zm9 6c-2.7-1.1-3.7-2.1-3.7-3.7v-.4l.2.2c.6.4 1.2.6 2.9.9 1 .1 1.6.3 2.1.4 1.7.6 2.7 1.7 3 3.2.1.4 0 1.3-.1 1.7-.1.3-.4 1-.4 1v-.2c0-.6-.3-1.1-.8-1.6-.6-.4-1.4-.8-3.2-1.5zm-1.9.4c0-.2-.1-.5-.1-.6l-.1-.2.1.1c.2.2.3.5.4.8s.1.3.1.8c0 .4 0 .5-.1.7-.1.4-.3.6-.6.9-.5.5-1.1.8-2.1.9-.2 0-.6.1-1 .1-1 .1-1.7.2-2.3.4-.1 0-.2.1-.2 0 0 0 .4-.3.7-.4.5-.2 1-.4 2.1-.5.5-.1 1.1-.2 1.2-.2 1.4-.4 2.1-1.4 1.9-2.8zm1.2 2.3c-.4-.8-.4-1.5-.2-2.2 0-.1.1-.1.1-.1s.1 0 .2.1c.2.1.5.3 1.4.8 1.1.6 1.8 1.1 2.2 1.6.4.5.6 1 .7 1.7.1.4 0 1.3-.1 1.6-.3 1.2-1 2.1-2 2.7-.1.1-.3.1-.3.1s0-.1.1-.3c.3-.7.4-1.4.1-2.1-.2-.5-.5-1-1.1-2-.7-1.2-.9-1.5-1.1-1.9zM9.6 21.6c1-.9 2.3-1.5 3.4-1.7.5-.1 1.3 0 1.8.1.7.2 1.4.6 1.7 1.1s.5.9.6 1.9c.1.4.1.8.1.8.1.5.3.9.6 1.1.4.3 1.2.3 1.9.1.1 0 .2-.1.2-.1s-.3.3-.6.4c-.3.2-.6.2-1 .2-.7 0-1.2-.3-1.7-1-.1-.1-.3-.5-.5-.9-.5-1.1-.7-1.5-1.3-1.8-.5-.3-1.1-.4-1.6-.1-.6.3-.8 1.1-.4 1.6.2.2.5.4.8.4.5.1 1-.3 1-.8 0-.3-.1-.5-.5-.7s-.9 0-.9.5c0 .2.1.3.3.4.1.1.1.1 0 0-.4-.1-.5-.6-.2-.9.4-.4 1.2-.2 1.5.3.1.2.1.7 0 .9-.2.6-.9.9-1.6.7-.5-.1-.6-.2-1.2-.8-1-1-1.3-1.2-2.7-1.4H9l.6-.3z" class="st0"/><path d="M12.2 11.7c-.3.1-.7.5-.8.8-.1.2 0 .6.1.7.1.2.3.2.7.2.8 0 1.4-.3 1.5-.7.1-.3-.2-.8-.6-1h-.9zm.9.7c.1-.2.1-.3-.1-.5-.4-.2-.9 0-.9.3 0 .2.3.4.6.4 0 .1.3-.1.4-.2z" style="fill-rule:evenodd;clip-rule:evenodd;fill:#fff"/><path d="M10.8 9.7c.2.3.1.5-.2.7-.2.1-.6.2-.8.2s-.5-.1-.7-.3c-.1-.1-.7-.9-1.9-2.7-.5-.8-1-1.5-1.3-2l-.1.1c.3.3.7 1.1 1.3 2.2 1.1 1.9 1.4 2.6 1.4 2.7 0 .2 0 .3-.3.5-.4.4-.5.9-.7 1.9 0 1-.4 1.8-1.5 3.1-.6.8-.7.9-.9 1.2-.2.4-.3.6-.3 1.1s0 .9.2 1.4c.1.4.3.7.7 1.3.3.5.5.9.5 1s0 .1.5 0c1.2-.3 2.2-.7 2.7-1.3.3-.4.4-.6.4-1.1 0-.3 0-.4-.1-.6-.1-.3-.4-.6-1-.9-.7-.5-1.1-.9-1.2-1.5-.1-.5 0-.8.4-1.7s.5-1.3.6-2.2c0-.6.1-.8.3-1s.3-.3.8-.3c.7-.1 1.2-.3 1.5-.6s.5-.6.5-1v-.3l-.2-.2c-.3-.3-2.4-2.6-4.5-5 .1.1-.1.2-.2.3 2.1 2.6 3.9 4.8 4.1 5zM6.6 19c-.1.2-.4.3-.6.2-.1-.1-.1-.2 0-.4s.1-.2 0-.3c-.1 0-.1-.1-.1-.1 0-.2.4-.3.6-.1.1.1.2.5.1.7z" class="st0"/></svg>